<svg xmlns="http://www.w3.org/2000/svg" width="1032" height="702" viewBox="0 0 1032.00 702.00" role="img" aria-label="hvo-roof ui">
<g font-family="ui-monospace, SFMono-Regular, 'Cascadia Mono', 'DejaVu Sans Mono', Menlo, Consolas, 'Liberation Mono', monospace" font-size="14" xml:space="preserve" style="white-space: pre">
<rect x="0" y="0" width="1032.00" height="702.00" rx="8" fill="#05070d"/>
<rect x="0" y="0" width="1032.00" height="30" rx="8" fill="#323233"/>
<rect x="0" y="22" width="1032.00" height="8" fill="#323233"/>
<circle cx="16" cy="15.0" r="6" fill="#ff5f57"/>
<circle cx="36" cy="15.0" r="6" fill="#febc2e"/>
<circle cx="56" cy="15.0" r="6" fill="#28c840"/>
<text x="516.00" y="20.0" fill="#cccccc" text-anchor="middle" font-size="13">hvo-roof ui</text>
<rect x="20.40" y="60" width="151.60" height="18.4" fill="#ffc107"/>
<rect x="20.40" y="78" width="991.60" height="18.4" fill="#0e1628"/>
<rect x="37.20" y="114" width="59.20" height="18.4" fill="#2563eb"/>
<rect x="28.80" y="600" width="67.60" height="18.4" fill="#198754"/>
<rect x="112.80" y="600" width="76.00" height="18.4" fill="#dc3545"/>
<rect x="205.20" y="600" width="126.40" height="18.4" fill="#1c2028"/>
<rect x="348.00" y="600" width="92.80" height="18.4" fill="#2563eb"/>
<rect x="20.40" y="654" width="991.60" height="18.4" fill="#1c2028"/>
<rect x="171.60" y="69.00" width="4.50" height="9.30" fill="#000000"/>
<rect x="96.00" y="609.00" width="4.50" height="9.30" fill="#000000"/>
<rect x="188.40" y="609.00" width="4.50" height="9.30" fill="#000000"/>
<rect x="331.20" y="609.00" width="4.50" height="9.30" fill="#000000"/>
<rect x="440.40" y="609.00" width="4.50" height="9.30" fill="#000000"/>
<line x1="16.20" y1="50.40" x2="16.20" y2="681.60" stroke="#abb0b7" stroke-width="1.2"/>
<line x1="15.60" y1="51.00" x2="25.20" y2="51.00" stroke="#abb0b7" stroke-width="1.2"/>
<line x1="326.40" y1="51.00" x2="1016.40" y2="51.00" stroke="#abb0b7" stroke-width="1.2"/>
<line x1="24.60" y1="41.40" x2="24.60" y2="60.60" stroke="#abb0b7" stroke-width="1.2"/>
<line x1="327.00" y1="41.40" x2="327.00" y2="60.60" stroke="#abb0b7" stroke-width="1.2"/>
<line x1="1015.80" y1="50.40" x2="1015.80" y2="681.60" stroke="#abb0b7" stroke-width="1.2"/>
<line x1="33.00" y1="113.40" x2="33.00" y2="132.60" stroke="#2d333d" stroke-width="1.2"/>
<line x1="28.20" y1="123.00" x2="33.60" y2="123.00" stroke="#2d333d" stroke-width="1.2"/>
<line x1="99.60" y1="123.00" x2="1003.80" y2="123.00" stroke="#2d333d" stroke-width="1.2"/>
<line x1="100.20" y1="113.40" x2="100.20" y2="132.60" stroke="#2d333d" stroke-width="1.2"/>
<line x1="24.60" y1="131.40" x2="24.60" y2="618.60" stroke="#2d333d" stroke-width="1.2"/>
<line x1="1007.40" y1="131.40" x2="1007.40" y2="618.60" stroke="#2d333d" stroke-width="1.2"/>
<line x1="28.20" y1="627.00" x2="1003.80" y2="627.00" stroke="#2d333d" stroke-width="1.2"/>
<line x1="15.60" y1="681.00" x2="1016.40" y2="681.00" stroke="#abb0b7" stroke-width="1.2"/>
<path d="M28.80,123.00 Q24.60,123.00 24.60,132.00" fill="none" stroke="#2d333d" stroke-width="1.2"/>
<path d="M1003.20,123.00 Q1007.40,123.00 1007.40,132.00" fill="none" stroke="#2d333d" stroke-width="1.2"/>
<path d="M24.60,618.00 Q24.60,627.00 28.80,627.00" fill="none" stroke="#2d333d" stroke-width="1.2"/>
<path d="M1007.40,618.00 Q1007.40,627.00 1003.20,627.00" fill="none" stroke="#2d333d" stroke-width="1.2"/>
<text x="37.20" y="55.50" fill="#abb0b7" textLength="277.20" lengthAdjust="spacingAndGlyphs">HVO roof: http://127.0.0.1:15195/</text>
<text x="20.40" y="73.50" fill="#000000" textLength="151.20" lengthAdjust="spacingAndGlyphs" font-weight="bold">⟦ Stop roof (F9) ⟧</text>
<text x="196.80" y="73.50" fill="#bbf7d0" textLength="470.40" lengthAdjust="spacingAndGlyphs">Stop acknowledged. Relay register verified de-energized.</text>
<text x="20.40" y="91.50" fill="#f8fafc" textLength="378.00" lengthAdjust="spacingAndGlyphs" font-weight="bold">emulator-admin (admin, API key) · status live</text>
<text x="37.20" y="127.50" fill="#f8fafc" textLength="58.80" lengthAdjust="spacingAndGlyphs" font-weight="bold">F1 Roof</text>
<text x="28.80" y="145.50" fill="#f8fafc" textLength="252.00" lengthAdjust="spacingAndGlyphs">Status at 2026-09-29 07:21:11Z</text>
<text x="28.80" y="181.50" fill="#f8fafc" textLength="42.00" lengthAdjust="spacingAndGlyphs">Roof:</text>
<text x="138.00" y="181.50" fill="#f8fafc" textLength="117.60" lengthAdjust="spacingAndGlyphs">Partially open</text>
<text x="28.80" y="199.50" fill="#f8fafc" textLength="84.00" lengthAdjust="spacingAndGlyphs">Last stop:</text>
<text x="138.00" y="199.50" fill="#f8fafc" textLength="344.40" lengthAdjust="spacingAndGlyphs">Stopped by operator, 2026-09-29 07:21:11Z</text>
<text x="28.80" y="217.50" fill="#f8fafc" textLength="50.40" lengthAdjust="spacingAndGlyphs">Fault:</text>
<text x="138.00" y="217.50" fill="#f8fafc" textLength="33.60" lengthAdjust="spacingAndGlyphs">none</text>
<text x="28.80" y="235.50" fill="#f8fafc" textLength="58.80" lengthAdjust="spacingAndGlyphs">Limits:</text>
<text x="138.00" y="235.50" fill="#f8fafc" textLength="252.00" lengthAdjust="spacingAndGlyphs">open inactive, closed inactive</text>
<text x="28.80" y="253.50" fill="#f8fafc" textLength="176.40" lengthAdjust="spacingAndGlyphs">Drive fault: inactive</text>
<text x="28.80" y="271.50" fill="#f8fafc" textLength="58.80" lengthAdjust="spacingAndGlyphs">Inputs:</text>
<text x="138.00" y="271.50" fill="#f8fafc" textLength="58.80" lengthAdjust="spacingAndGlyphs">read OK</text>
<text x="28.80" y="289.50" fill="#f8fafc" textLength="58.80" lengthAdjust="spacingAndGlyphs">Relays:</text>
<text x="138.00" y="289.50" fill="#f8fafc" textLength="218.40" lengthAdjust="spacingAndGlyphs">register read-back matched</text>
<text x="28.80" y="307.50" fill="#f8fafc" textLength="92.40" lengthAdjust="spacingAndGlyphs">Controller:</text>
<text x="138.00" y="307.50" fill="#f8fafc" textLength="579.60" lengthAdjust="spacingAndGlyphs">HVO Roof Controller, emulated HAT, snapshot 6 at 2026-09-29 07:21:11Z</text>
<text x="28.80" y="613.50" fill="#ffffff" textLength="67.20" lengthAdjust="spacingAndGlyphs" font-weight="bold">⟦ Open ⟧</text>
<text x="112.80" y="613.50" fill="#ffffff" textLength="75.60" lengthAdjust="spacingAndGlyphs" font-weight="bold">⟦ Close ⟧</text>
<text x="205.20" y="613.50" fill="#aeb9c8" textLength="126.00" lengthAdjust="spacingAndGlyphs" opacity="0.6">⟦ Clear fault ⟧</text>
<text x="348.00" y="613.50" fill="#f8fafc" textLength="92.40" lengthAdjust="spacingAndGlyphs" font-weight="bold">⟦ Refresh ⟧</text>
<text x="20.40" y="649.50" fill="#f8fafc" textLength="142.80" lengthAdjust="spacingAndGlyphs">Health: Degraded.</text>
<text x="20.40" y="667.50" fill="#3b82f6" textLength="16.80" lengthAdjust="spacingAndGlyphs" font-weight="bold">F1</text>
<text x="45.60" y="667.50" fill="#abb0b7" textLength="33.60" lengthAdjust="spacingAndGlyphs">Roof</text>
<text x="96.00" y="667.50" fill="#3b82f6" textLength="16.80" lengthAdjust="spacingAndGlyphs" font-weight="bold">F2</text>
<text x="121.20" y="667.50" fill="#abb0b7" textLength="67.20" lengthAdjust="spacingAndGlyphs">Settings</text>
<text x="205.20" y="667.50" fill="#3b82f6" textLength="16.80" lengthAdjust="spacingAndGlyphs" font-weight="bold">F3</text>
<text x="230.40" y="667.50" fill="#abb0b7" textLength="50.40" lengthAdjust="spacingAndGlyphs">People</text>
<text x="297.60" y="667.50" fill="#3b82f6" textLength="16.80" lengthAdjust="spacingAndGlyphs" font-weight="bold">F4</text>
<text x="322.80" y="667.50" fill="#abb0b7" textLength="50.40" lengthAdjust="spacingAndGlyphs">System</text>
<text x="390.00" y="667.50" fill="#3b82f6" textLength="16.80" lengthAdjust="spacingAndGlyphs" font-weight="bold">F5</text>
<text x="415.20" y="667.50" fill="#abb0b7" textLength="42.00" lengthAdjust="spacingAndGlyphs">Setup</text>
<text x="474.00" y="667.50" fill="#3b82f6" textLength="16.80" lengthAdjust="spacingAndGlyphs" font-weight="bold">F9</text>
<text x="499.20" y="667.50" fill="#abb0b7" textLength="75.60" lengthAdjust="spacingAndGlyphs">Stop roof</text>
<text x="591.60" y="667.50" fill="#3b82f6" textLength="25.20" lengthAdjust="spacingAndGlyphs" font-weight="bold">F10</text>
<text x="625.20" y="667.50" fill="#abb0b7" textLength="33.60" lengthAdjust="spacingAndGlyphs">Quit</text>
</g>
</svg>
